<svg aria-hidden="true" style="position: absolute; width: 0; height: 0; overflow: hidden;" version="1.1" xmlns="http://www.w3.org/2000/svg" xmlns:xlink="http://www.w3.org/1999/xlink">
<defs>
<symbol id="icon-chat" viewBox="0 0 46 32">
<path d="M35.371 13.998c0-8.062-8.498-13.346-16.983-13.346-8.521 0-16.983 5.308-16.983 13.346 0 3.040 1.332 6.014 3.751 8.373 0.091 0.089 0.126 0.228 0.091 0.356-0.759 2.784-2.558 5.298-3.296 6.249-0.127 0.16-0.204 0.366-0.204 0.589 0 0.158 0.039 0.307 0.107 0.439l-0.002-0.005c0.16 0.314 0.48 0.526 0.851 0.526 0.002 0 0.004 0 0.006-0h0.025c3.612-0.089 7.799-1.109 10.388-3.653 0.089-0.089 0.22-0.124 0.347-0.094 1.591 0.377 3.246 0.569 4.921 0.569 8.516 0 16.983-5.308 16.983-13.348zM13.765 25.518c-0.117-0.029-0.251-0.046-0.389-0.046-0.453 0-0.864 0.182-1.163 0.477l0-0c-2.588 2.544-6.814 3.124-8.816 3.253 0.914-1.262 2.4-3.58 3.097-6.133 0.038-0.132 0.059-0.283 0.059-0.44 0-0.463-0.19-0.882-0.496-1.183l-0-0c-2.197-2.144-3.36-4.718-3.36-7.447 0-6.645 7.040-12.053 15.691-12.053s15.689 5.408 15.689 12.053c0 6.647-7.038 12.053-15.689 12.053-1.575 0-3.129-0.178-4.622-0.533z"></path>
<path d="M39.529 24.743c3.771-1.906 6.021-5.152 6.021-8.688 0-4.996-4.516-9.262-10.736-10.148-0.018-0.002-0.039-0.003-0.060-0.003-0.357 0-0.647 0.29-0.647 0.647 0 0.315 0.225 0.577 0.522 0.635l0.004 0.001c5.577 0.795 9.625 4.523 9.625 8.868 0 3.036-1.986 5.852-5.312 7.534-0.524 0.27-0.877 0.807-0.877 1.427 0 0.117 0.012 0.23 0.036 0.34l-0.002-0.011c0.315 1.483 0.987 2.855 1.524 3.785-3.819-0.636-5.266-2.469-5.724-3.262-0.281-0.478-0.793-0.793-1.378-0.793-0.001 0-0.002 0-0.003 0h-0.051c-0.716 0-1.435-0.050-2.133-0.148-0.018-0.002-0.039-0.003-0.060-0.003-0.357 0-0.647 0.29-0.647 0.647 0 0.315 0.225 0.577 0.522 0.635l0.004 0.001c0.759 0.107 1.538 0.16 2.315 0.16h0.053c0.107 0 0.208 0.057 0.26 0.148 1.751 3.035 5.778 3.81 7.428 4.002 0.364 0.043 0.711-0.124 0.907-0.436 0.090-0.141 0.143-0.312 0.143-0.496 0-0.189-0.056-0.364-0.153-0.51l0.002 0.003c-0.498-0.773-1.383-2.324-1.742-4.002-0.004-0.019-0.007-0.041-0.007-0.063 0-0.118 0.068-0.221 0.167-0.27l0.002-0.001zM8.324 11.685c-1.236 0-2.24 1.006-2.24 2.24 0 1.237 1.004 2.242 2.24 2.242s2.242-1.004 2.242-2.24c0-1.236-1.006-2.242-2.24-2.242zM8.324 14.875c-0.524-0.001-0.948-0.426-0.948-0.949s0.425-0.949 0.949-0.949c0.001 0 0.001 0 0.002 0h-0c0.524 0.001 0.948 0.426 0.948 0.949s-0.425 0.949-0.949 0.949c-0.001 0-0.001 0-0.002 0h0zM14.718 11.685c-1.236 0-2.24 1.006-2.24 2.24 0 1.237 1.004 2.242 2.24 2.242s2.24-1.004 2.24-2.24c0-1.236-1.004-2.242-2.24-2.242zM14.718 14.875c-0.524-0.001-0.948-0.425-0.948-0.949s0.425-0.949 0.949-0.949c0 0 0.001 0 0.001 0h-0c0.524 0.001 0.948 0.425 0.948 0.949s-0.425 0.949-0.949 0.949c-0 0-0.001 0-0.001 0h0zM21.111 11.685c-1.236 0-2.24 1.006-2.24 2.24 0 1.237 1.004 2.242 2.24 2.242s2.24-1.004 2.24-2.24c0-1.236-1.004-2.242-2.24-2.242zM21.111 14.875c-0.524-0.001-0.948-0.425-0.948-0.949s0.425-0.949 0.949-0.949c0 0 0.001 0 0.001 0h-0c0.524 0 0.949 0.425 0.949 0.949s-0.425 0.949-0.949 0.949v0zM27.506 11.685c-1.236 0-2.242 1.006-2.242 2.24 0 1.237 1.006 2.242 2.24 2.242 1.237 0 2.242-1.004 2.242-2.24s-1.004-2.242-2.24-2.242zM27.506 14.875c-0.524 0-0.949-0.425-0.949-0.949s0.425-0.949 0.949-0.949v0c0.524 0 0.949 0.425 0.949 0.949s-0.425 0.949-0.949 0.949v0z"></path>
</symbol>
<symbol id="icon-chef-hat" viewBox="0 0 35 32">
<path d="M25.172 8.293c-0 0-0.001 0-0.002 0-0.258 0-0.467-0.209-0.467-0.467 0-0.001 0-0.001 0-0.002v0c-0.085-3.713-3.115-6.691-6.841-6.691s-6.756 2.978-6.841 6.683l-0 0.008c0 0.258-0.209 0.467-0.467 0.467s-0.467-0.209-0.467-0.467v0c0.091-4.225 3.537-7.616 7.776-7.616s7.685 3.391 7.776 7.607l0 0.008c0 0 0 0 0 0 0 0.258-0.209 0.467-0.466 0.468h-0z"></path>
<path d="M26.535 18.868c-0.247-0.014-0.443-0.218-0.443-0.468 0-0.248 0.193-0.451 0.436-0.467l0.001-0c3.704-0.022 6.705-3.006 6.754-6.702l0-0.005c-0.038-3.72-3.062-6.72-6.787-6.72-0.018 0-0.036 0-0.054 0l0.003-0c-0.689 0-1.374 0.101-2.035 0.303-0.041 0.013-0.088 0.021-0.137 0.021-0.258 0-0.468-0.209-0.468-0.468 0-0.209 0.138-0.387 0.327-0.446l0.003-0.001c0.689-0.218 1.48-0.344 2.302-0.344 0.003 0 0.006 0 0.010 0h-0c0.015-0 0.032-0 0.049-0 4.241 0 7.684 3.419 7.722 7.651l0 0.004c-0.051 4.212-3.462 7.61-7.674 7.641l-0.003 0h-0.007zM9.187 18.868h-0.005c-4.215-0.031-7.626-3.429-7.677-7.636l-0-0.005c0.038-4.236 3.481-7.655 7.722-7.655 0.017 0 0.035 0 0.052 0h-0.003c0.783 0 1.561 0.115 2.311 0.344 0.21 0.049 0.364 0.235 0.364 0.456 0 0.259-0.21 0.468-0.468 0.468-0.061 0-0.12-0.012-0.173-0.033l0.003 0.001c-0.66-0.202-1.347-0.303-2.036-0.303-0.015-0-0.033-0-0.051-0-3.726 0-6.75 3.002-6.787 6.718l-0 0.004c0.049 3.7 3.049 6.684 6.752 6.707h0.002c0.008-0 0.016-0.001 0.025-0.001 0.259 0 0.468 0.21 0.468 0.468s-0.21 0.468-0.468 0.468c-0.011 0-0.021-0-0.032-0.001l0.001 0z"></path>
<path d="M26.536 30.494h-17.347c0 0 0 0 0 0-0.258 0-0.467-0.209-0.468-0.466v-11.626c0-0.258 0.209-0.467 0.467-0.467s0.467 0.209 0.467 0.467v0 11.158h16.413v-11.158c0.015-0.246 0.219-0.44 0.467-0.44s0.452 0.194 0.467 0.439l0 0.001v11.626c0 0.258-0.209 0.467-0.467 0.467v0z"></path>
<path d="M29.789 25.965h-17.347c-0.246-0.015-0.44-0.219-0.44-0.467s0.194-0.452 0.439-0.467l0.001-0h17.347c0.258 0 0.467 0.209 0.467 0.467s-0.209 0.467-0.467 0.467v0z"></path>
</symbol>
<symbol id="icon-clock" viewBox="0 0 34 32">
<path d="M16.632 0.25c-8.701 0-15.779 7.077-15.779 15.776 0 8.701 7.078 15.779 15.779 15.779 8.699 0 15.776-7.078 15.776-15.778 0-8.701-7.077-15.778-15.776-15.778zM16.632 30.752c-8.12 0-14.726-6.605-14.726-14.725-0.002-8.12 6.606-14.726 14.726-14.726 8.118 0 14.725 6.606 14.725 14.726s-6.606 14.725-14.725 14.725z"></path>
<path d="M17.157 13.934v-5.334c0-0.009 0.001-0.019 0.001-0.029 0-0.291-0.236-0.526-0.526-0.526s-0.526 0.236-0.526 0.526c0 0.010 0 0.020 0.001 0.030l-0-0.001v5.336c-0.736 0.192-1.312 0.768-1.504 1.504h-3.754c-0.009-0.001-0.019-0.001-0.029-0.001-0.291 0-0.526 0.236-0.526 0.526s0.236 0.526 0.526 0.526c0.010 0 0.020-0 0.030-0.001l-0.001 0h3.757c0.234 0.904 1.051 1.578 2.029 1.578 1.16 0 2.104-0.944 2.104-2.104 0-0.978-0.674-1.794-1.579-2.029zM16.632 17.014c-0.581-0-1.052-0.472-1.052-1.053s0.471-1.053 1.053-1.053c0 0 0.001 0 0.001 0h-0c0.581 0 1.052 0.472 1.052 1.053s-0.471 1.053-1.053 1.053c-0 0-0.001 0-0.001 0h0zM16.632 5.445c0.29-0.001 0.525-0.236 0.525-0.526 0 0 0 0 0 0v0-0.526c0-0.009 0.001-0.019 0.001-0.029 0-0.291-0.236-0.526-0.526-0.526s-0.526 0.236-0.526 0.526c0 0.010 0 0.020 0.001 0.030l-0-0.001v0.528c0 0.288 0.235 0.525 0.526 0.525zM16.632 26.482c-0 0-0.001 0-0.002 0-0.291 0-0.526 0.236-0.526 0.526 0 0 0 0 0 0v0 0.525c0 0.291 0.236 0.526 0.526 0.526s0.526-0.236 0.526-0.526v-0.525c0 0 0 0 0 0 0-0.29-0.235-0.526-0.525-0.526h-0zM28.202 15.437h-0.526c-0.291 0-0.526 0.236-0.526 0.526s0.236 0.526 0.526 0.526h0.526c0.291 0 0.526-0.236 0.526-0.526s-0.236-0.526-0.526-0.526v0zM5.587 15.437h-0.526c-0.291 0-0.526 0.236-0.526 0.526s0.236 0.526 0.526 0.526h0.526c0.291 0 0.526-0.236 0.526-0.526s-0.236-0.526-0.526-0.526v0zM24.442 7.408l-0.373 0.373c-0.095 0.095-0.154 0.227-0.154 0.372 0 0.291 0.236 0.526 0.526 0.526 0.145 0 0.277-0.059 0.372-0.154l0.371-0.371c0.095-0.095 0.154-0.227 0.154-0.372 0-0.29-0.235-0.526-0.526-0.526-0.145 0-0.276 0.059-0.371 0.154v0zM8.45 23.4l-0.371 0.373c-0.095 0.095-0.154 0.226-0.154 0.371 0 0.29 0.235 0.526 0.526 0.526 0.145 0 0.277-0.059 0.372-0.154v0l0.371-0.371c0.095-0.095 0.154-0.227 0.154-0.372 0-0.291-0.236-0.526-0.526-0.526-0.145 0-0.277 0.059-0.372 0.154v0zM24.813 23.4c-0.095-0.095-0.227-0.154-0.372-0.154-0.291 0-0.526 0.236-0.526 0.526 0 0.145 0.059 0.277 0.154 0.372l0.373 0.373c0.095 0.095 0.226 0.154 0.371 0.154s0.276-0.059 0.371-0.154v0c0.096-0.095 0.155-0.227 0.155-0.372s-0.059-0.277-0.155-0.372l-0-0-0.371-0.373zM8.822 7.408c-0.095-0.095-0.227-0.154-0.372-0.154-0.291 0-0.527 0.236-0.527 0.527 0 0.146 0.059 0.277 0.155 0.373v0l0.371 0.371c0.095 0.095 0.227 0.155 0.372 0.155s0.277-0.059 0.372-0.155l0-0c0.095-0.095 0.155-0.227 0.155-0.372s-0.059-0.277-0.155-0.372l-0.371-0.371z"></path>
</symbol>
<symbol id="icon-close" viewBox="0 0 32 32">
<path d="M30.354 32c0.909-0.001 1.645-0.737 1.645-1.646 0-0.455-0.184-0.866-0.483-1.164l-28.704-28.709c-0.298-0.298-0.71-0.482-1.164-0.482-0.909 0-1.647 0.737-1.647 1.647 0 0.455 0.184 0.866 0.482 1.164l28.708 28.708c0.322 0.32 0.743 0.484 1.164 0.484z"></path>
<path d="M1.644 32c0.421 0 0.843-0.16 1.164-0.484l28.709-28.706c0.298-0.298 0.482-0.71 0.482-1.164 0-0.909-0.737-1.647-1.647-1.647-0.455 0-0.866 0.184-1.164 0.482l-28.709 28.709c-0.297 0.298-0.481 0.709-0.481 1.163 0 0.909 0.736 1.646 1.645 1.646h0z"></path>
</symbol>
<symbol id="icon-facebook" viewBox="0 0 21 32">
<path d="M18.56 0.006l-4.154-0.006c-4.659 0-7.674 3.091-7.674 7.876v3.631h-4.171c-0.361 0-0.653 0.292-0.653 0.653v0 5.261c0 0.361 0.292 0.651 0.653 0.651h4.171v13.276c0 0.363 0.292 0.653 0.653 0.653h5.444c0.361 0 0.653-0.292 0.653-0.653v0-13.276h4.879c0.359-0.001 0.649-0.292 0.651-0.651v-0l0.002-5.261c0-0.361-0.292-0.653-0.653-0.653v0h-4.879v-3.081c0-1.481 0.352-2.231 2.278-2.231h2.795c0.001 0 0.001 0 0.002 0 0.361 0 0.653-0.292 0.653-0.653 0 0 0 0 0 0v0-4.883c0-0.361-0.292-0.653-0.653-0.653v0z"></path>
</symbol>
<symbol id="icon-instagram" viewBox="0 0 32 32">
<path d="M16.315 32h-0.318c-0.141 0.001-0.307 0.001-0.474 0.001-2.324 0-4.632-0.071-6.921-0.212l0.314 0.015c-2.067-0.126-3.953-0.84-5.455-2.065-1.448-1.182-2.439-2.781-2.942-4.749-0.438-1.716-0.46-3.399-0.483-5.027-0.017-1.167-0.032-2.552-0.035-3.96 0.003-1.415 0.020-2.799 0.035-3.966 0.024-1.629 0.045-3.311 0.483-5.027 0.504-1.971 1.492-3.567 2.942-4.749 1.502-1.224 3.389-1.939 5.457-2.065 1.977-0.125 4.287-0.196 6.614-0.196 0.166 0 0.331 0 0.497 0.001l-0.026-0c0.135-0.001 0.294-0.001 0.454-0.001 2.331 0 4.646 0.071 6.942 0.212l-0.315-0.015c2.067 0.126 3.953 0.84 5.455 2.065 1.448 1.182 2.439 2.779 2.942 4.749 0.438 1.716 0.46 3.399 0.483 5.027 0.017 1.167 0.034 2.552 0.035 3.96v0.007c-0.003 1.406-0.020 2.791-0.035 3.96-0.024 1.629-0.045 3.311-0.483 5.027-0.504 1.969-1.492 3.567-2.942 4.749-1.502 1.224-3.389 1.939-5.457 2.065-1.965 0.125-4.262 0.196-6.575 0.196-0.067 0-0.134-0-0.201-0h0.010zM15.997 29.499c0.141 0.001 0.308 0.001 0.475 0.001 2.273 0 4.529-0.069 6.768-0.206l-0.307 0.015c1.561-0.094 2.917-0.601 4.025-1.506 1.027-0.837 1.735-1.992 2.1-3.431 0.365-1.428 0.387-2.961 0.406-4.443 0.017-1.162 0.034-2.535 0.037-3.929-0.003-1.395-0.020-2.769-0.037-3.929-0.020-1.482-0.040-3.015-0.404-4.443-0.369-1.44-1.075-2.594-2.1-3.431-1.112-0.904-2.466-1.411-4.029-1.506-1.94-0.123-4.206-0.193-6.489-0.193-0.154 0-0.308 0-0.462 0.001l0.024-0c-0.135-0.001-0.294-0.001-0.453-0.001-2.28 0-4.544 0.070-6.789 0.208l0.308-0.015c-1.563 0.094-2.919 0.601-4.029 1.506-1.026 0.837-1.731 1.991-2.099 3.431-0.365 1.428-0.387 2.961-0.406 4.443-0.017 1.162-0.034 2.536-0.037 3.933 0.003 1.388 0.020 2.764 0.037 3.924 0.020 1.482 0.040 3.015 0.404 4.443 0.369 1.44 1.075 2.594 2.1 3.432 1.112 0.904 2.466 1.411 4.029 1.506 2.2 0.135 4.467 0.197 6.927 0.19zM15.938 23.813c-4.313-0.005-7.808-3.5-7.813-7.813v-0c0.005-4.313 3.5-7.808 7.813-7.813h0c4.313 0.005 7.808 3.5 7.813 7.813v0c-0.005 4.314-3.501 7.809-7.814 7.813h-0zM15.938 10.688c-2.933 0.003-5.31 2.379-5.314 5.312v0c0.004 2.933 2.381 5.309 5.313 5.312h0c2.932-0.004 5.308-2.38 5.312-5.312v-0c-0.004-2.932-2.38-5.308-5.312-5.312h-0zM24.625 5.686c-1.036 0-1.875 0.84-1.875 1.875s0.84 1.875 1.875 1.875v0c1.035 0 1.875-0.839 1.875-1.875s-0.839-1.875-1.875-1.875v0z"></path>
</symbol>
<symbol id="icon-location" viewBox="0 0 23 32">
<path d="M11.733 1.195c6.47 0 11.733 5.261 11.733 11.733 0 2.56-0.811 4.992-2.34 7.031l-8.67 11.678c-0.021 0.030-0.055 0.041-0.079 0.064-0.161 0.183-0.396 0.297-0.657 0.297-0.29 0-0.547-0.141-0.707-0.359l-0.002-0.002c-2.498-3.328-7.074-9.551-8.832-11.898l-0.004-0.006-0.011-0.013c-1.354-1.879-2.165-4.227-2.165-6.764 0-0.011 0-0.021 0-0.032v0.002c0-6.47 5.263-11.731 11.733-11.731zM11.733 19.255c3.491-0.010 6.319-2.837 6.33-6.326v-0.001c-0.008-3.493-2.837-6.322-6.329-6.332h-0.001c-3.492 0.010-6.32 2.838-6.33 6.329v0.001c0.010 3.492 2.838 6.32 6.329 6.33h0.001z"></path>
</symbol>
<symbol id="icon-menu" viewBox="0 0 60 32">
<path d="M2 0h56c1.105 0 2 0.895 2 2s-0.895 2-2 2h-56c-1.105 0-2-0.895-2-2s0.895-2 2-2z"></path>
<path d="M2 14h56c1.105 0 2 0.895 2 2s-0.895 2-2 2h-56c-1.105 0-2-0.895-2-2s0.895-2 2-2z"></path>
<path d="M2 28h56c1.105 0 2 0.895 2 2s-0.895 2-2 2h-56c-1.105 0-2-0.895-2-2s0.895-2 2-2z"></path>
</symbol>
<symbol id="icon-people" viewBox="0 0 35 32">
<path d="M11.975 0.729c-3.634 0.007-6.579 2.951-6.585 6.585v0.001c0.005 3.636 2.95 6.582 6.585 6.589h0.001c3.636-0.005 6.583-2.951 6.589-6.586v-0.001c-0.006-3.636-2.952-6.582-6.588-6.587h-0zM11.975 12.798c-3.032 0-5.489-2.464-5.489-5.491 0.006-3.030 2.461-5.484 5.49-5.489h0c3.032 0 5.489 2.466 5.489 5.491-0.005 3.030-2.46 5.486-5.49 5.491h-0zM25.467 3.463c-2.731 0.001-4.944 2.214-4.945 4.945v0c0.002 2.73 2.215 4.942 4.945 4.943h0c2.729-0.002 4.941-2.214 4.943-4.943v-0c-0.001-2.73-2.213-4.943-4.943-4.945h-0zM25.467 12.259c-2.124-0.001-3.845-1.722-3.847-3.845v-0c0.001-2.124 1.723-3.846 3.847-3.847h0c2.123 0.002 3.844 1.723 3.845 3.847v0c-0.002 2.123-1.722 3.843-3.845 3.845h-0z"></path>
<path d="M34.311 20.598c-0.499-3.003-2.365-5.536-5.543-6.863 0 0-1.408 1.064-3.301 1.031-2.068-0.040-3.301-1.031-3.301-1.031s-1.536 0.573-2.774 1.765c-1.145-1.017-3.079-1.846-3.079-1.846s-1.772 1.347-4.345 1.327c-2.7-0.020-4.33-1.327-4.33-1.327s-5.839 2.009-7.074 8.817c0 0-1.319 3.611 1.74 9.005h19.352s1.373-2.392 1.617-3.845h9.624c2.365-3.584 1.415-7.033 1.415-7.033zM20.973 30.378h-17.991c-2.349-4.465-1.332-7.725-1.332-7.725 0.59-3.464 2.818-6.304 5.843-7.732l0.064-0.027c2.695 1.583 6.149 1.583 8.842 0 3.089 1.455 5.318 4.295 5.899 7.697l0.009 0.062c-0.007 0 0.97 4.015-1.334 7.725zM32.258 26.533h-8.765c0.337-1.94-0.108-4.062-0.108-4.062-0.415-2.453-1.555-4.588-3.187-6.232l0.001 0.001c0.542-0.493 1.16-0.915 1.833-1.244l0.046-0.021c0.974 0.559 2.141 0.889 3.385 0.889s2.412-0.33 3.419-0.907l-0.034 0.018c2.289 1.105 3.937 3.225 4.371 5.759l0.007 0.047s0.802 2.722-0.97 5.753z"></path>
</symbol>
<symbol id="icon-phone" viewBox="0 0 32 32">
<path d="M29.43 21.002c-0.010 0-0.022 0-0.033 0-2.028 0-3.979-0.332-5.801-0.946l0.128 0.037c-0.894-0.305-1.991-0.025-2.535 0.534l-3.599 2.718c-4.172-2.228-6.742-4.798-8.938-8.938l2.634-3.505c0.47-0.468 0.761-1.116 0.761-1.831 0-0.281-0.045-0.553-0.128-0.806l0.005 0.018c-0.577-1.697-0.911-3.652-0.911-5.685 0-0.011 0-0.022 0-0.033v0.002c-0.002-1.415-1.157-2.567-2.57-2.567h-5.876c-1.415 0-2.567 1.152-2.567 2.567 0 16.229 13.201 29.433 29.43 29.433 1.415 0 2.567-1.152 2.567-2.567v-5.858c0-1.418-1.152-2.57-2.567-2.57z"></path>
</symbol>
<symbol id="icon-rate" viewBox="0 0 181 32">
<path d="M14.732 3.903c0.4-1.228 2.137-1.228 2.536 0l2.025 6.232c0.179 0.538 0.678 0.92 1.267 0.92h6.553c1.292 0 1.828 1.653 0.784 2.413l-5.301 3.851c-0.335 0.245-0.549 0.637-0.549 1.078 0 0.147 0.024 0.289 0.068 0.422l-0.003-0.009 2.024 6.232c0.4 1.229-1.007 2.251-2.051 1.491l-5.301-3.851c-0.217-0.159-0.489-0.255-0.784-0.255s-0.567 0.096-0.788 0.257l0.004-0.003-5.301 3.851c-1.044 0.76-2.451-0.263-2.051-1.491l2.024-6.232c0.041-0.123 0.065-0.265 0.065-0.412 0-0.442-0.215-0.833-0.546-1.076l-0.004-0.003-5.301-3.851c-1.044-0.76-0.507-2.413 0.784-2.413h6.552c0 0 0 0 0 0 0.589 0 1.088-0.381 1.265-0.911l0.003-0.009 2.025-6.232zM164.065 3.903c0.399-1.228 2.137-1.228 2.536 0l2.025 6.232c0.179 0.539 0.679 0.92 1.268 0.92 0 0 0 0 0 0h6.552c1.292 0 1.828 1.653 0.784 2.413l-5.301 3.851c-0.335 0.245-0.549 0.637-0.549 1.078 0 0.147 0.024 0.289 0.068 0.422l-0.003-0.009 2.024 6.232c0.4 1.229-1.007 2.251-2.051 1.491l-5.301-3.851c-0.217-0.159-0.489-0.255-0.784-0.255s-0.567 0.096-0.788 0.257l0.004-0.003-5.301 3.851c-1.044 0.76-2.451-0.263-2.051-1.491l2.024-6.232c0.041-0.123 0.065-0.265 0.065-0.412 0-0.442-0.215-0.833-0.546-1.076l-0.004-0.003-5.301-3.851c-1.044-0.76-0.508-2.413 0.784-2.413h6.552c0 0 0 0 0 0 0.589 0 1.088-0.381 1.265-0.911l0.003-0.009 2.025-6.232zM126.732 3.903c0.4-1.228 2.137-1.228 2.536 0l2.025 6.232c0.179 0.538 0.678 0.92 1.267 0.92h6.553c1.292 0 1.828 1.653 0.784 2.413l-5.301 3.851c-0.335 0.245-0.549 0.637-0.549 1.078 0 0.147 0.024 0.289 0.068 0.422l-0.003-0.009 2.024 6.232c0.4 1.229-1.007 2.251-2.051 1.491l-5.301-3.851c-0.217-0.159-0.489-0.255-0.784-0.255s-0.567 0.096-0.788 0.257l0.004-0.003-5.301 3.851c-1.044 0.76-2.451-0.263-2.051-1.491l2.024-6.232c0.041-0.123 0.065-0.265 0.065-0.412 0-0.442-0.215-0.833-0.546-1.076l-0.004-0.003-5.301-3.851c-1.045-0.76-0.507-2.413 0.784-2.413h6.552c0 0 0 0 0 0 0.589 0 1.088-0.381 1.265-0.911l0.003-0.009 2.025-6.232zM89.399 3.903c0.4-1.228 2.137-1.228 2.536 0l2.025 6.232c0.179 0.538 0.678 0.92 1.267 0.92h6.553c1.292 0 1.829 1.653 0.784 2.413l-5.301 3.851c-0.335 0.245-0.549 0.637-0.549 1.078 0 0.147 0.024 0.289 0.068 0.422l-0.003-0.009 2.024 6.232c0.4 1.229-1.007 2.251-2.051 1.491l-5.301-3.851c-0.217-0.159-0.489-0.255-0.784-0.255s-0.567 0.096-0.788 0.257l0.004-0.003-5.301 3.851c-1.044 0.76-2.451-0.263-2.051-1.491l2.024-6.232c0.041-0.123 0.065-0.265 0.065-0.412 0-0.442-0.215-0.833-0.546-1.076l-0.004-0.003-5.301-3.851c-1.044-0.76-0.507-2.413 0.784-2.413h6.552c0 0 0 0 0 0 0.589 0 1.088-0.381 1.265-0.911l0.003-0.009 2.025-6.232zM52.065 3.903c0.4-1.228 2.137-1.228 2.536 0l2.025 6.232c0.179 0.538 0.678 0.92 1.267 0.92h6.553c1.292 0 1.828 1.653 0.784 2.413l-5.301 3.851c-0.335 0.245-0.549 0.637-0.549 1.078 0 0.147 0.024 0.289 0.068 0.422l-0.003-0.009 2.024 6.232c0.4 1.229-1.007 2.251-2.051 1.491l-5.301-3.851c-0.217-0.159-0.489-0.255-0.784-0.255s-0.567 0.096-0.788 0.257l0.004-0.003-5.3 3.851c-1.045 0.76-2.452-0.263-2.053-1.491l2.027-6.232c0.041-0.123 0.065-0.264 0.065-0.411 0-0.442-0.215-0.834-0.547-1.077l-0.004-0.003-5.301-3.851c-1.045-0.76-0.507-2.413 0.784-2.413h6.552c0 0 0 0 0 0 0.589 0 1.088-0.381 1.265-0.911l0.003-0.009 2.025-6.232z"></path>
</symbol>
<symbol id="icon-Star" viewBox="0 0 34 32">
<path d="M15.24 1.561c0.505-1.551 2.7-1.551 3.203 0l2.558 7.872c0.227 0.68 0.857 1.162 1.6 1.162h8.278c1.632 0 2.309 2.088 0.99 3.048l-6.696 4.864c-0.423 0.31-0.694 0.804-0.694 1.362 0 0.186 0.030 0.365 0.086 0.533l-0.003-0.012 2.557 7.872c0.505 1.553-1.272 2.843-2.592 1.883l-6.695-4.864c-0.274-0.201-0.618-0.322-0.99-0.322s-0.716 0.121-0.995 0.325l0.005-0.003-6.696 4.864c-1.319 0.96-3.096-0.332-2.59-1.883l2.557-7.872c0.052-0.155 0.082-0.335 0.082-0.521 0-0.558-0.271-1.052-0.689-1.359l-0.005-0.003-6.696-4.864c-1.319-0.96-0.64-3.048 0.99-3.048h8.276c0 0 0 0 0 0 0.744 0 1.374-0.482 1.598-1.15l0.003-0.012 2.56-7.872z"></path>
</symbol>
<symbol id="icon-twitter" viewBox="0 0 41 32">
<path d="M40.42 3.789c-1.502 0.64-3.104 1.067-4.774 1.274 1.709-0.992 2.998-2.546 3.629-4.404l0.017-0.057c-1.6 0.93-3.371 1.587-5.254 1.954-1.53-1.577-3.669-2.556-6.037-2.556-0.006 0-0.012 0-0.019 0h0.001c-4.587 0-8.279 3.627-8.279 8.077 0 0.64 0.055 1.254 0.192 1.841-6.87-0.317-12.934-3.518-17.052-8.41l-0.029-0.036c-0.709 1.165-1.13 2.574-1.133 4.080v0.001c0 2.795 1.476 5.276 3.68 6.709-1.377-0.036-2.661-0.4-3.788-1.016l0.044 0.022v0.090c0 3.925 2.871 7.183 6.639 7.934-0.674 0.179-1.408 0.265-2.172 0.265-0.533 0-1.067-0.030-1.57-0.137 1.073 3.196 4.122 5.547 7.744 5.623-2.809 2.149-6.371 3.443-10.235 3.443-0.014 0-0.028-0-0.042-0h0.002c-0.036 0-0.079 0-0.122 0-0.656 0-1.303-0.040-1.938-0.117l0.076 0.008c3.58 2.273 7.94 3.623 12.615 3.623 0.034 0 0.069-0 0.103-0l-0.005 0c15.249 0 23.586-12.309 23.586-22.976 0-0.356-0.013-0.702-0.032-1.045 1.638-1.149 3.017-2.539 4.118-4.135l0.036-0.055z"></path>
</symbol>
</defs>
</svg>
